<mxfile host="app.diagrams.net" modified="2021-10-14T10:54:13.727Z" agent="5.0 (Windows)" etag="8BM0WjRViGCOEoTEc8cW" version="15.5.2" type="github">
  <diagram id="9yWnI-oqCP8LrikPILIi" name="Page-1">
    <mxGraphModel dx="1221" dy="631" grid="1" gridSize="10" guides="1" tooltips="1" connect="1" arrows="1" fold="1" page="0" pageScale="1" pageWidth="827" pageHeight="1169" background="#CCFFD8" math="0" shadow="0">
      <root>
        <mxCell id="0" />
        <mxCell id="1" parent="0" />
        <mxCell id="0B0G43uTMchfIIR2No09-1" value="IBS Tea Shop" style="swimlane;childLayout=stackLayout;resizeParent=1;resizeParentMax=0;horizontal=1;startSize=20;horizontalStack=0;" vertex="1" parent="1">
          <mxGeometry x="120" y="410" width="700" height="180" as="geometry" />
        </mxCell>
        <mxCell id="0B0G43uTMchfIIR2No09-2" value="HR manager" style="swimlane;startSize=20;horizontal=0;" vertex="1" parent="0B0G43uTMchfIIR2No09-1">
          <mxGeometry y="20" width="700" height="160" as="geometry" />
        </mxCell>
        <mxCell id="0B0G43uTMchfIIR2No09-14" value="&lt;h4&gt;&lt;font face=&quot;Times New Roman&quot;&gt;reads the application&lt;/font&gt;&lt;/h4&gt;" style="rounded=1;whiteSpace=wrap;html=1;" vertex="1" parent="0B0G43uTMchfIIR2No09-2">
          <mxGeometry x="30" y="50" width="110" height="40" as="geometry" />
        </mxCell>
        <mxCell id="0B0G43uTMchfIIR2No09-21" value="&lt;h5&gt;&lt;font face=&quot;Times New Roman&quot;&gt;Does the application raises his interest?&lt;/font&gt;&lt;/h5&gt;" style="rhombus;whiteSpace=wrap;html=1;rounded=1;" vertex="1" parent="0B0G43uTMchfIIR2No09-2">
          <mxGeometry x="160" y="10" width="110" height="100" as="geometry" />
        </mxCell>
        <mxCell id="0B0G43uTMchfIIR2No09-22" value="" style="edgeStyle=orthogonalEdgeStyle;rounded=0;orthogonalLoop=1;jettySize=auto;html=1;fontFamily=Times New Roman;" edge="1" parent="0B0G43uTMchfIIR2No09-2" source="0B0G43uTMchfIIR2No09-14" target="0B0G43uTMchfIIR2No09-21">
          <mxGeometry relative="1" as="geometry" />
        </mxCell>
        <mxCell id="0B0G43uTMchfIIR2No09-25" value="" style="endArrow=classic;html=1;rounded=0;fontFamily=Times New Roman;entryX=0.5;entryY=1;entryDx=0;entryDy=0;entryPerimeter=0;" edge="1" parent="0B0G43uTMchfIIR2No09-2" target="0B0G43uTMchfIIR2No09-34">
          <mxGeometry relative="1" as="geometry">
            <mxPoint x="250" y="70" as="sourcePoint" />
            <mxPoint x="350" y="70" as="targetPoint" />
            <Array as="points">
              <mxPoint x="480" y="150" />
            </Array>
          </mxGeometry>
        </mxCell>
        <mxCell id="0B0G43uTMchfIIR2No09-26" value="&lt;b&gt;NO&lt;/b&gt;" style="edgeLabel;resizable=0;html=1;align=center;verticalAlign=middle;fontFamily=Times New Roman;" connectable="0" vertex="1" parent="0B0G43uTMchfIIR2No09-25">
          <mxGeometry relative="1" as="geometry" />
        </mxCell>
        <mxCell id="0B0G43uTMchfIIR2No09-23" value="" style="endArrow=classic;html=1;rounded=0;fontFamily=Times New Roman;exitX=0.938;exitY=0.4;exitDx=0;exitDy=0;exitPerimeter=0;entryX=0;entryY=0.75;entryDx=0;entryDy=0;" edge="1" parent="0B0G43uTMchfIIR2No09-2" source="0B0G43uTMchfIIR2No09-21" target="0B0G43uTMchfIIR2No09-27">
          <mxGeometry relative="1" as="geometry">
            <mxPoint x="280" y="50" as="sourcePoint" />
            <mxPoint x="380" y="50" as="targetPoint" />
            <Array as="points">
              <mxPoint x="310" y="30" />
            </Array>
          </mxGeometry>
        </mxCell>
        <mxCell id="0B0G43uTMchfIIR2No09-24" value="&lt;b&gt;YES&lt;/b&gt;" style="edgeLabel;resizable=0;html=1;align=center;verticalAlign=middle;fontFamily=Times New Roman;" connectable="0" vertex="1" parent="0B0G43uTMchfIIR2No09-23">
          <mxGeometry relative="1" as="geometry" />
        </mxCell>
        <mxCell id="0B0G43uTMchfIIR2No09-31" style="edgeStyle=orthogonalEdgeStyle;rounded=0;orthogonalLoop=1;jettySize=auto;html=1;exitX=0.5;exitY=1;exitDx=0;exitDy=0;entryX=0;entryY=0.75;entryDx=0;entryDy=0;fontFamily=Times New Roman;" edge="1" parent="0B0G43uTMchfIIR2No09-2" source="0B0G43uTMchfIIR2No09-27" target="0B0G43uTMchfIIR2No09-30">
          <mxGeometry relative="1" as="geometry" />
        </mxCell>
        <mxCell id="0B0G43uTMchfIIR2No09-27" value="&lt;h5&gt;&lt;b&gt;send message and invitation via e-mail&lt;/b&gt;&lt;/h5&gt;" style="rounded=1;whiteSpace=wrap;html=1;fontFamily=Times New Roman;" vertex="1" parent="0B0G43uTMchfIIR2No09-2">
          <mxGeometry x="400" y="10" width="80" height="40" as="geometry" />
        </mxCell>
        <mxCell id="0B0G43uTMchfIIR2No09-35" style="edgeStyle=orthogonalEdgeStyle;rounded=0;orthogonalLoop=1;jettySize=auto;html=1;exitX=1;exitY=0.5;exitDx=0;exitDy=0;entryX=0;entryY=0.5;entryDx=0;entryDy=0;entryPerimeter=0;fontFamily=Times New Roman;" edge="1" parent="0B0G43uTMchfIIR2No09-2" source="0B0G43uTMchfIIR2No09-30" target="0B0G43uTMchfIIR2No09-34">
          <mxGeometry relative="1" as="geometry" />
        </mxCell>
        <mxCell id="0B0G43uTMchfIIR2No09-30" value="&lt;div&gt;&lt;h5&gt;&lt;b&gt;enter the&amp;nbsp; appointment into his calenda&lt;/b&gt;r&lt;/h5&gt;&lt;/div&gt;" style="rounded=1;whiteSpace=wrap;html=1;fontFamily=Times New Roman;" vertex="1" parent="0B0G43uTMchfIIR2No09-2">
          <mxGeometry x="500" y="50" width="110" height="40" as="geometry" />
        </mxCell>
        <mxCell id="0B0G43uTMchfIIR2No09-34" value="" style="points=[[0.145,0.145,0],[0.5,0,0],[0.855,0.145,0],[1,0.5,0],[0.855,0.855,0],[0.5,1,0],[0.145,0.855,0],[0,0.5,0]];shape=mxgraph.bpmn.event;html=1;verticalLabelPosition=bottom;labelBackgroundColor=#ffffff;verticalAlign=top;align=center;perimeter=ellipsePerimeter;outlineConnect=0;aspect=fixed;outline=end;symbol=terminate2;fontFamily=Times New Roman;" vertex="1" parent="0B0G43uTMchfIIR2No09-2">
          <mxGeometry x="650" y="50" width="40" height="40" as="geometry" />
        </mxCell>
        <mxCell id="0B0G43uTMchfIIR2No09-6" value="Applicant" style="swimlane;horizontal=0;" vertex="1" parent="1">
          <mxGeometry x="120" y="140" width="520" height="200" as="geometry" />
        </mxCell>
        <mxCell id="0B0G43uTMchfIIR2No09-19" style="edgeStyle=orthogonalEdgeStyle;rounded=0;orthogonalLoop=1;jettySize=auto;html=1;exitX=1;exitY=0.5;exitDx=0;exitDy=0;" edge="1" parent="0B0G43uTMchfIIR2No09-6" source="0B0G43uTMchfIIR2No09-12" target="0B0G43uTMchfIIR2No09-17">
          <mxGeometry relative="1" as="geometry" />
        </mxCell>
        <mxCell id="0B0G43uTMchfIIR2No09-12" value="" style="ellipse;whiteSpace=wrap;html=1;aspect=fixed;" vertex="1" parent="0B0G43uTMchfIIR2No09-6">
          <mxGeometry x="30" y="50" width="40" height="40" as="geometry" />
        </mxCell>
        <mxCell id="0B0G43uTMchfIIR2No09-17" value="&lt;h5&gt;&lt;font face=&quot;Times New Roman&quot;&gt;sends an email applying for a job&lt;/font&gt;&lt;/h5&gt;" style="rounded=1;whiteSpace=wrap;html=1;" vertex="1" parent="0B0G43uTMchfIIR2No09-6">
          <mxGeometry x="100" y="55" width="100" height="35" as="geometry" />
        </mxCell>
        <mxCell id="0B0G43uTMchfIIR2No09-33" style="edgeStyle=orthogonalEdgeStyle;rounded=0;orthogonalLoop=1;jettySize=auto;html=1;exitX=1;exitY=0.5;exitDx=0;exitDy=0;entryX=0;entryY=0.5;entryDx=0;entryDy=0;entryPerimeter=0;fontFamily=Times New Roman;" edge="1" parent="0B0G43uTMchfIIR2No09-6" source="0B0G43uTMchfIIR2No09-28" target="0B0G43uTMchfIIR2No09-32">
          <mxGeometry relative="1" as="geometry" />
        </mxCell>
        <mxCell id="0B0G43uTMchfIIR2No09-28" value="&lt;h5&gt;reads e-mail and accept the invitation&lt;/h5&gt;" style="rounded=1;whiteSpace=wrap;html=1;fontFamily=Times New Roman;" vertex="1" parent="0B0G43uTMchfIIR2No09-6">
          <mxGeometry x="250" y="55" width="100" height="35" as="geometry" />
        </mxCell>
        <mxCell id="0B0G43uTMchfIIR2No09-32" value="" style="points=[[0.145,0.145,0],[0.5,0,0],[0.855,0.145,0],[1,0.5,0],[0.855,0.855,0],[0.5,1,0],[0.145,0.855,0],[0,0.5,0]];shape=mxgraph.bpmn.event;html=1;verticalLabelPosition=bottom;labelBackgroundColor=#ffffff;verticalAlign=top;align=center;perimeter=ellipsePerimeter;outlineConnect=0;aspect=fixed;outline=end;symbol=terminate2;fontFamily=Times New Roman;" vertex="1" parent="0B0G43uTMchfIIR2No09-6">
          <mxGeometry x="450" y="52.5" width="40" height="40" as="geometry" />
        </mxCell>
        <mxCell id="0B0G43uTMchfIIR2No09-20" style="edgeStyle=orthogonalEdgeStyle;rounded=0;orthogonalLoop=1;jettySize=auto;html=1;exitX=0.25;exitY=1;exitDx=0;exitDy=0;fontFamily=Times New Roman;dashed=1;" edge="1" parent="1" source="0B0G43uTMchfIIR2No09-17" target="0B0G43uTMchfIIR2No09-14">
          <mxGeometry relative="1" as="geometry" />
        </mxCell>
        <mxCell id="0B0G43uTMchfIIR2No09-29" style="edgeStyle=orthogonalEdgeStyle;rounded=0;orthogonalLoop=1;jettySize=auto;html=1;exitX=0.5;exitY=0;exitDx=0;exitDy=0;fontFamily=Times New Roman;dashed=1;" edge="1" parent="1" source="0B0G43uTMchfIIR2No09-27" target="0B0G43uTMchfIIR2No09-28">
          <mxGeometry relative="1" as="geometry" />
        </mxCell>
        <mxCell id="0B0G43uTMchfIIR2No09-36" value="&lt;h2&gt;&lt;span style=&quot;background-color: transparent&quot;&gt;&lt;font color=&quot;#190033&quot;&gt;&lt;b&gt;IBS Tea Shop&lt;/b&gt;&lt;/font&gt;&lt;/span&gt;&lt;/h2&gt;" style="verticalLabelPosition=bottom;verticalAlign=top;html=1;shape=mxgraph.basic.banner;fontFamily=Times New Roman;fillColor=#00FFFF;fontColor=#ffffff;strokeColor=#006EAF;gradientColor=#ffffff;gradientDirection=south;shadow=1;sketch=0;" vertex="1" parent="1">
          <mxGeometry x="224" y="40" width="380" height="50" as="geometry" />
        </mxCell>
      </root>
    </mxGraphModel>
  </diagram>
</mxfile>
